<mxfile host="app.diagrams.net" modified="2023-08-23T16:28:15.818Z" agent="Mozilla/5.0 (Windows NT 10.0; Win64; x64; rv:109.0) Gecko/20100101 Firefox/116.0" etag="-jo3U2MER3J_6MK3NxdE" version="21.6.8" type="device">
  <diagram id="C5RBs43oDa-KdzZeNtuy" name="Page-1">
    <mxGraphModel dx="1100" dy="663" grid="0" gridSize="10" guides="1" tooltips="1" connect="1" arrows="1" fold="1" page="1" pageScale="1" pageWidth="827" pageHeight="1169" background="#FFFFFF" math="0" shadow="1">
      <root>
        <mxCell id="WIyWlLk6GJQsqaUBKTNV-0" />
        <mxCell id="WIyWlLk6GJQsqaUBKTNV-1" parent="WIyWlLk6GJQsqaUBKTNV-0" />
        <mxCell id="WIyWlLk6GJQsqaUBKTNV-2" value="" style="rounded=0;html=1;jettySize=auto;orthogonalLoop=1;fontSize=11;endArrow=block;endFill=0;endSize=8;strokeWidth=1;shadow=0;labelBackgroundColor=none;edgeStyle=orthogonalEdgeStyle;strokeColor=#000000;" parent="WIyWlLk6GJQsqaUBKTNV-1" source="WIyWlLk6GJQsqaUBKTNV-3" target="WIyWlLk6GJQsqaUBKTNV-6" edge="1">
          <mxGeometry relative="1" as="geometry" />
        </mxCell>
        <mxCell id="WIyWlLk6GJQsqaUBKTNV-3" value="Login" style="rounded=1;whiteSpace=wrap;html=1;fontSize=12;glass=0;strokeWidth=1;shadow=0;fillColor=#1ba1e2;fontColor=#ffffff;strokeColor=#000000;" parent="WIyWlLk6GJQsqaUBKTNV-1" vertex="1">
          <mxGeometry x="349.96" y="166" width="90" height="30" as="geometry" />
        </mxCell>
        <mxCell id="WIyWlLk6GJQsqaUBKTNV-5" value="&lt;font&gt;Invalid&lt;/font&gt;" style="edgeStyle=orthogonalEdgeStyle;rounded=0;html=1;jettySize=auto;orthogonalLoop=1;fontSize=11;endArrow=block;endFill=0;endSize=8;strokeWidth=1;shadow=0;labelBackgroundColor=none;entryX=1;entryY=0.25;entryDx=0;entryDy=0;exitX=1;exitY=0.5;exitDx=0;exitDy=0;strokeColor=#000000;fontColor=#000000;" parent="WIyWlLk6GJQsqaUBKTNV-1" source="WIyWlLk6GJQsqaUBKTNV-6" target="WIyWlLk6GJQsqaUBKTNV-3" edge="1">
          <mxGeometry y="10" relative="1" as="geometry">
            <mxPoint as="offset" />
            <mxPoint x="549.96" y="186" as="targetPoint" />
            <Array as="points">
              <mxPoint x="529.96" y="276" />
              <mxPoint x="529.96" y="174" />
            </Array>
          </mxGeometry>
        </mxCell>
        <mxCell id="8BPu_o3kOxfXDKiwP98S-32" style="edgeStyle=orthogonalEdgeStyle;rounded=0;orthogonalLoop=1;jettySize=auto;html=1;strokeColor=#000000;" parent="WIyWlLk6GJQsqaUBKTNV-1" source="WIyWlLk6GJQsqaUBKTNV-6" edge="1">
          <mxGeometry relative="1" as="geometry">
            <mxPoint x="396" y="280" as="targetPoint" />
            <Array as="points">
              <mxPoint x="396" y="280" />
            </Array>
          </mxGeometry>
        </mxCell>
        <mxCell id="Hv_kiw9oEFp-t0dqKTi3-8" style="edgeStyle=none;curved=1;rounded=0;orthogonalLoop=1;jettySize=auto;html=1;exitX=0.5;exitY=1;exitDx=0;exitDy=0;entryX=0.469;entryY=0;entryDx=0;entryDy=0;entryPerimeter=0;fontSize=12;startSize=8;endSize=8;" edge="1" parent="WIyWlLk6GJQsqaUBKTNV-1" source="WIyWlLk6GJQsqaUBKTNV-6" target="8BPu_o3kOxfXDKiwP98S-8">
          <mxGeometry relative="1" as="geometry" />
        </mxCell>
        <mxCell id="WIyWlLk6GJQsqaUBKTNV-6" value="Authentication" style="rhombus;whiteSpace=wrap;html=1;shadow=0;fontFamily=Helvetica;fontSize=12;align=center;strokeWidth=1;spacing=6;spacingTop=-4;fillColor=#1ba1e2;fontColor=#ffffff;strokeColor=none;" parent="WIyWlLk6GJQsqaUBKTNV-1" vertex="1">
          <mxGeometry x="344" y="256" width="100" height="42" as="geometry" />
        </mxCell>
        <mxCell id="8BPu_o3kOxfXDKiwP98S-28" style="edgeStyle=orthogonalEdgeStyle;rounded=0;orthogonalLoop=1;jettySize=auto;html=1;strokeColor=#000000;" parent="WIyWlLk6GJQsqaUBKTNV-1" edge="1">
          <mxGeometry relative="1" as="geometry">
            <mxPoint x="310" y="523.75" as="sourcePoint" />
            <mxPoint x="310" y="740" as="targetPoint" />
            <Array as="points">
              <mxPoint x="310" y="690" />
              <mxPoint x="310" y="690" />
            </Array>
          </mxGeometry>
        </mxCell>
        <mxCell id="8BPu_o3kOxfXDKiwP98S-52" style="edgeStyle=orthogonalEdgeStyle;rounded=0;orthogonalLoop=1;jettySize=auto;html=1;strokeColor=#000000;" parent="WIyWlLk6GJQsqaUBKTNV-1" source="WIyWlLk6GJQsqaUBKTNV-10" target="8BPu_o3kOxfXDKiwP98S-17" edge="1">
          <mxGeometry relative="1" as="geometry" />
        </mxCell>
        <mxCell id="WIyWlLk6GJQsqaUBKTNV-10" value="Check&lt;br&gt;Status" style="rhombus;whiteSpace=wrap;html=1;shadow=0;fontFamily=Helvetica;fontSize=12;align=center;strokeWidth=1;spacing=6;spacingTop=-4;fillColor=#1ba1e2;fontColor=#ffffff;strokeColor=#000000;" parent="WIyWlLk6GJQsqaUBKTNV-1" vertex="1">
          <mxGeometry x="270" y="511" width="86" height="50" as="geometry" />
        </mxCell>
        <mxCell id="8BPu_o3kOxfXDKiwP98S-0" value="" style="ellipse;html=1;shape=startState;fillColor=#000000;strokeColor=#ff0000;" parent="WIyWlLk6GJQsqaUBKTNV-1" vertex="1">
          <mxGeometry x="379.96" y="3" width="30" height="30" as="geometry" />
        </mxCell>
        <mxCell id="8BPu_o3kOxfXDKiwP98S-1" value="" style="edgeStyle=orthogonalEdgeStyle;html=1;verticalAlign=bottom;endArrow=open;endSize=8;strokeColor=#ff0000;rounded=0;entryX=0.5;entryY=0;entryDx=0;entryDy=0;entryPerimeter=0;" parent="WIyWlLk6GJQsqaUBKTNV-1" source="8BPu_o3kOxfXDKiwP98S-0" target="8BPu_o3kOxfXDKiwP98S-2" edge="1">
          <mxGeometry relative="1" as="geometry">
            <mxPoint x="409.96" y="16" as="targetPoint" />
          </mxGeometry>
        </mxCell>
        <mxCell id="8BPu_o3kOxfXDKiwP98S-4" style="edgeStyle=orthogonalEdgeStyle;rounded=0;orthogonalLoop=1;jettySize=auto;html=1;entryX=1;entryY=0.5;entryDx=0;entryDy=0;strokeColor=#000000;" parent="WIyWlLk6GJQsqaUBKTNV-1" source="8BPu_o3kOxfXDKiwP98S-2" target="8BPu_o3kOxfXDKiwP98S-3" edge="1">
          <mxGeometry relative="1" as="geometry" />
        </mxCell>
        <mxCell id="8BPu_o3kOxfXDKiwP98S-6" style="edgeStyle=orthogonalEdgeStyle;rounded=0;orthogonalLoop=1;jettySize=auto;html=1;entryX=0.5;entryY=0;entryDx=0;entryDy=0;strokeColor=#000000;" parent="WIyWlLk6GJQsqaUBKTNV-1" source="8BPu_o3kOxfXDKiwP98S-2" target="WIyWlLk6GJQsqaUBKTNV-3" edge="1">
          <mxGeometry relative="1" as="geometry" />
        </mxCell>
        <mxCell id="8BPu_o3kOxfXDKiwP98S-2" value="Register" style="strokeWidth=2;html=1;shape=mxgraph.flowchart.decision;whiteSpace=wrap;fillColor=#1ba1e2;fontColor=#ffffff;strokeColor=none;" parent="WIyWlLk6GJQsqaUBKTNV-1" vertex="1">
          <mxGeometry x="341" y="57" width="110" height="41" as="geometry" />
        </mxCell>
        <mxCell id="8BPu_o3kOxfXDKiwP98S-55" style="edgeStyle=orthogonalEdgeStyle;rounded=0;orthogonalLoop=1;jettySize=auto;html=1;entryX=0;entryY=0.75;entryDx=0;entryDy=0;fillColor=#FFFFFF;strokeColor=#000000;" parent="WIyWlLk6GJQsqaUBKTNV-1" source="8BPu_o3kOxfXDKiwP98S-3" target="WIyWlLk6GJQsqaUBKTNV-3" edge="1">
          <mxGeometry relative="1" as="geometry">
            <Array as="points">
              <mxPoint x="247" y="188" />
            </Array>
          </mxGeometry>
        </mxCell>
        <mxCell id="8BPu_o3kOxfXDKiwP98S-3" value="Register" style="rounded=1;whiteSpace=wrap;html=1;strokeColor=#000000;fillColor=#1ba1e2;fontColor=#ffffff;" parent="WIyWlLk6GJQsqaUBKTNV-1" vertex="1">
          <mxGeometry x="219" y="63" width="80" height="30" as="geometry" />
        </mxCell>
        <mxCell id="8BPu_o3kOxfXDKiwP98S-5" value="&lt;font&gt;No&lt;/font&gt;" style="text;html=1;align=center;verticalAlign=middle;resizable=0;points=[];autosize=1;strokeColor=none;fillColor=none;fontColor=#000000;" parent="WIyWlLk6GJQsqaUBKTNV-1" vertex="1">
          <mxGeometry x="315.96" y="58" width="34" height="26" as="geometry" />
        </mxCell>
        <mxCell id="Hv_kiw9oEFp-t0dqKTi3-5" style="edgeStyle=none;curved=1;rounded=0;orthogonalLoop=1;jettySize=auto;html=1;entryX=0.5;entryY=0;entryDx=0;entryDy=0;fontSize=12;startSize=8;endSize=8;exitX=0.098;exitY=0.7;exitDx=0;exitDy=0;exitPerimeter=0;" edge="1" parent="WIyWlLk6GJQsqaUBKTNV-1" source="8BPu_o3kOxfXDKiwP98S-8" target="8BPu_o3kOxfXDKiwP98S-24">
          <mxGeometry relative="1" as="geometry">
            <mxPoint x="166" y="340" as="sourcePoint" />
          </mxGeometry>
        </mxCell>
        <mxCell id="Hv_kiw9oEFp-t0dqKTi3-6" style="edgeStyle=none;curved=1;rounded=0;orthogonalLoop=1;jettySize=auto;html=1;entryX=0.5;entryY=0;entryDx=0;entryDy=0;fontSize=12;startSize=8;endSize=8;exitX=0.875;exitY=1.15;exitDx=0;exitDy=0;exitPerimeter=0;" edge="1" parent="WIyWlLk6GJQsqaUBKTNV-1" source="8BPu_o3kOxfXDKiwP98S-8" target="8BPu_o3kOxfXDKiwP98S-37">
          <mxGeometry relative="1" as="geometry" />
        </mxCell>
        <mxCell id="Hv_kiw9oEFp-t0dqKTi3-7" style="edgeStyle=none;curved=1;rounded=0;orthogonalLoop=1;jettySize=auto;html=1;entryX=0.5;entryY=0;entryDx=0;entryDy=0;fontSize=12;startSize=8;endSize=8;exitX=0.336;exitY=0.05;exitDx=0;exitDy=0;exitPerimeter=0;" edge="1" parent="WIyWlLk6GJQsqaUBKTNV-1" source="8BPu_o3kOxfXDKiwP98S-8" target="8BPu_o3kOxfXDKiwP98S-14">
          <mxGeometry relative="1" as="geometry" />
        </mxCell>
        <mxCell id="8BPu_o3kOxfXDKiwP98S-8" value="" style="verticalLabelPosition=bottom;html=1;verticalAlign=top;align=center;shape=mxgraph.floorplan.wall;strokeColor=#000000;fillColor=#000000;" parent="WIyWlLk6GJQsqaUBKTNV-1" vertex="1">
          <mxGeometry x="103" y="335" width="620" height="10" as="geometry" />
        </mxCell>
        <mxCell id="8BPu_o3kOxfXDKiwP98S-18" style="edgeStyle=orthogonalEdgeStyle;rounded=0;orthogonalLoop=1;jettySize=auto;html=1;entryX=0.5;entryY=0;entryDx=0;entryDy=0;strokeColor=#000000;" parent="WIyWlLk6GJQsqaUBKTNV-1" edge="1">
          <mxGeometry relative="1" as="geometry">
            <mxPoint x="309.5" y="456.9999999999998" as="sourcePoint" />
            <mxPoint x="309.5" y="511" as="targetPoint" />
            <Array as="points">
              <mxPoint x="309.5" y="452" />
              <mxPoint x="309.5" y="482" />
              <mxPoint x="310.5" y="482" />
              <mxPoint x="310.5" y="511" />
            </Array>
          </mxGeometry>
        </mxCell>
        <mxCell id="8BPu_o3kOxfXDKiwP98S-22" style="edgeStyle=orthogonalEdgeStyle;rounded=0;orthogonalLoop=1;jettySize=auto;html=1;entryX=0.5;entryY=0;entryDx=0;entryDy=0;strokeColor=#000000;" parent="WIyWlLk6GJQsqaUBKTNV-1" source="8BPu_o3kOxfXDKiwP98S-17" target="8BPu_o3kOxfXDKiwP98S-21" edge="1">
          <mxGeometry relative="1" as="geometry" />
        </mxCell>
        <mxCell id="8BPu_o3kOxfXDKiwP98S-17" value="Book" style="rounded=1;whiteSpace=wrap;html=1;fontSize=12;glass=0;strokeWidth=1;shadow=0;fillColor=#1ba1e2;fontColor=#ffffff;strokeColor=#000000;" parent="WIyWlLk6GJQsqaUBKTNV-1" vertex="1">
          <mxGeometry x="402.96" y="516" width="96" height="40" as="geometry" />
        </mxCell>
        <mxCell id="8BPu_o3kOxfXDKiwP98S-43" style="edgeStyle=orthogonalEdgeStyle;rounded=0;orthogonalLoop=1;jettySize=auto;html=1;strokeColor=#000000;" parent="WIyWlLk6GJQsqaUBKTNV-1" source="8BPu_o3kOxfXDKiwP98S-21" edge="1">
          <mxGeometry relative="1" as="geometry">
            <mxPoint x="451" y="739" as="targetPoint" />
          </mxGeometry>
        </mxCell>
        <mxCell id="8BPu_o3kOxfXDKiwP98S-21" value="Confirm &lt;br&gt;Book" style="rounded=1;whiteSpace=wrap;html=1;fontSize=12;glass=0;strokeWidth=1;shadow=0;fillColor=#1ba1e2;fontColor=#ffffff;strokeColor=#000000;" parent="WIyWlLk6GJQsqaUBKTNV-1" vertex="1">
          <mxGeometry x="402.96" y="641" width="96" height="40" as="geometry" />
        </mxCell>
        <mxCell id="8BPu_o3kOxfXDKiwP98S-23" value="&lt;font style=&quot;font-size: 10px;&quot;&gt;Available&lt;/font&gt;" style="text;html=1;align=center;verticalAlign=middle;resizable=0;points=[];autosize=1;strokeColor=none;fillColor=none;fontColor=#000000;" parent="WIyWlLk6GJQsqaUBKTNV-1" vertex="1">
          <mxGeometry x="343.96" y="508" width="63" height="26" as="geometry" />
        </mxCell>
        <mxCell id="tZZJJGr4Nyh_WJNYv-40-5" style="edgeStyle=orthogonalEdgeStyle;rounded=0;orthogonalLoop=1;jettySize=auto;html=1;entryX=0.5;entryY=0;entryDx=0;entryDy=0;" parent="WIyWlLk6GJQsqaUBKTNV-1" source="8BPu_o3kOxfXDKiwP98S-25" edge="1">
          <mxGeometry relative="1" as="geometry">
            <mxPoint x="414" y="906" as="targetPoint" />
          </mxGeometry>
        </mxCell>
        <mxCell id="8BPu_o3kOxfXDKiwP98S-25" value="Logout" style="rounded=1;whiteSpace=wrap;html=1;fontSize=12;glass=0;strokeWidth=1;shadow=0;fillColor=#1ba1e2;fontColor=#ffffff;strokeColor=#000000;" parent="WIyWlLk6GJQsqaUBKTNV-1" vertex="1">
          <mxGeometry x="366" y="802" width="96" height="40" as="geometry" />
        </mxCell>
        <mxCell id="8BPu_o3kOxfXDKiwP98S-31" style="edgeStyle=orthogonalEdgeStyle;rounded=0;orthogonalLoop=1;jettySize=auto;html=1;entryX=0.5;entryY=0;entryDx=0;entryDy=0;strokeColor=#000000;" parent="WIyWlLk6GJQsqaUBKTNV-1" target="8BPu_o3kOxfXDKiwP98S-25" edge="1">
          <mxGeometry relative="1" as="geometry">
            <Array as="points">
              <mxPoint x="415" y="757" />
              <mxPoint x="415" y="757" />
            </Array>
            <mxPoint x="415.0909090909088" y="750" as="sourcePoint" />
          </mxGeometry>
        </mxCell>
        <mxCell id="8BPu_o3kOxfXDKiwP98S-26" value="" style="verticalLabelPosition=bottom;html=1;verticalAlign=top;align=center;shape=mxgraph.floorplan.wall;fillColor=strokeColor;strokeColor=#000000;" parent="WIyWlLk6GJQsqaUBKTNV-1" vertex="1">
          <mxGeometry x="134" y="740" width="547" height="10" as="geometry" />
        </mxCell>
        <mxCell id="8BPu_o3kOxfXDKiwP98S-33" value="&lt;font&gt;valid&lt;/font&gt;" style="text;html=1;align=center;verticalAlign=middle;resizable=0;points=[];autosize=1;strokeColor=none;fillColor=none;fontColor=#000000;" parent="WIyWlLk6GJQsqaUBKTNV-1" vertex="1">
          <mxGeometry x="356.96" y="306" width="43" height="26" as="geometry" />
        </mxCell>
        <mxCell id="8BPu_o3kOxfXDKiwP98S-46" style="edgeStyle=orthogonalEdgeStyle;rounded=0;orthogonalLoop=1;jettySize=auto;html=1;strokeColor=#000000;" parent="WIyWlLk6GJQsqaUBKTNV-1" edge="1">
          <mxGeometry relative="1" as="geometry">
            <mxPoint x="644" y="511" as="targetPoint" />
            <mxPoint x="644" y="451" as="sourcePoint" />
          </mxGeometry>
        </mxCell>
        <mxCell id="8BPu_o3kOxfXDKiwP98S-37" value="Profile" style="rounded=1;whiteSpace=wrap;html=1;fontSize=12;glass=0;strokeWidth=1;shadow=0;fillColor=#1ba1e2;fontColor=#ffffff;strokeColor=#000000;" parent="WIyWlLk6GJQsqaUBKTNV-1" vertex="1">
          <mxGeometry x="583" y="411" width="120" height="40" as="geometry" />
        </mxCell>
        <mxCell id="8BPu_o3kOxfXDKiwP98S-40" value="" style="edgeStyle=orthogonalEdgeStyle;rounded=0;orthogonalLoop=1;jettySize=auto;html=1;entryX=0.5;entryY=0;entryDx=0;entryDy=0;strokeColor=#000000;" parent="WIyWlLk6GJQsqaUBKTNV-1" target="8BPu_o3kOxfXDKiwP98S-14" edge="1">
          <mxGeometry relative="1" as="geometry">
            <mxPoint x="321" y="450.9999999999998" as="sourcePoint" />
            <mxPoint x="311" y="511" as="targetPoint" />
            <Array as="points">
              <mxPoint x="321" y="452" />
            </Array>
          </mxGeometry>
        </mxCell>
        <mxCell id="8BPu_o3kOxfXDKiwP98S-14" value="View Facility Type" style="rounded=1;whiteSpace=wrap;html=1;fontSize=12;glass=0;strokeWidth=1;shadow=0;fillColor=#1ba1e2;fontColor=#ffffff;strokeColor=#000000;" parent="WIyWlLk6GJQsqaUBKTNV-1" vertex="1">
          <mxGeometry x="250" y="417" width="120" height="40" as="geometry" />
        </mxCell>
        <mxCell id="8BPu_o3kOxfXDKiwP98S-47" style="edgeStyle=orthogonalEdgeStyle;rounded=0;orthogonalLoop=1;jettySize=auto;html=1;entryX=0.404;entryY=0.047;entryDx=0;entryDy=0;entryPerimeter=0;strokeColor=#000000;" parent="WIyWlLk6GJQsqaUBKTNV-1" edge="1">
          <mxGeometry relative="1" as="geometry">
            <mxPoint x="649" y="556" as="sourcePoint" />
            <mxPoint x="643.44" y="642.8799999999997" as="targetPoint" />
            <Array as="points">
              <mxPoint x="644" y="557" />
              <mxPoint x="644" y="600" />
              <mxPoint x="643" y="600" />
            </Array>
          </mxGeometry>
        </mxCell>
        <mxCell id="8BPu_o3kOxfXDKiwP98S-44" value="Book status" style="rounded=1;whiteSpace=wrap;html=1;fontSize=12;glass=0;strokeWidth=1;shadow=0;fillColor=#1ba1e2;fontColor=#ffffff;strokeColor=#000000;" parent="WIyWlLk6GJQsqaUBKTNV-1" vertex="1">
          <mxGeometry x="583" y="516" width="120" height="40" as="geometry" />
        </mxCell>
        <mxCell id="8BPu_o3kOxfXDKiwP98S-48" style="edgeStyle=orthogonalEdgeStyle;rounded=0;orthogonalLoop=1;jettySize=auto;html=1;entryX=0.932;entryY=-0.257;entryDx=0;entryDy=0;entryPerimeter=0;strokeColor=#000000;" parent="WIyWlLk6GJQsqaUBKTNV-1" edge="1">
          <mxGeometry relative="1" as="geometry">
            <Array as="points" />
            <mxPoint x="641.0399999999995" y="650" as="sourcePoint" />
            <mxPoint x="641.0399999999995" y="737.4299999999998" as="targetPoint" />
          </mxGeometry>
        </mxCell>
        <mxCell id="8BPu_o3kOxfXDKiwP98S-45" value="Cancel booking" style="rounded=1;whiteSpace=wrap;html=1;fontSize=12;glass=0;strokeWidth=1;shadow=0;fillColor=#1ba1e2;fontColor=#ffffff;strokeColor=#000000;" parent="WIyWlLk6GJQsqaUBKTNV-1" vertex="1">
          <mxGeometry x="593" y="641" width="110" height="40" as="geometry" />
        </mxCell>
        <mxCell id="tZZJJGr4Nyh_WJNYv-40-1" value="&lt;font&gt;not &lt;/font&gt;&lt;font style=&quot;font-size: 10px;&quot;&gt;Available&lt;/font&gt;" style="text;html=1;align=center;verticalAlign=middle;resizable=0;points=[];autosize=1;strokeColor=none;fillColor=none;fontColor=#000000;" parent="WIyWlLk6GJQsqaUBKTNV-1" vertex="1">
          <mxGeometry x="280" y="648" width="83" height="26" as="geometry" />
        </mxCell>
        <mxCell id="tZZJJGr4Nyh_WJNYv-40-3" value="&lt;font&gt;Yes&lt;/font&gt;" style="text;html=1;align=center;verticalAlign=middle;resizable=0;points=[];autosize=1;strokeColor=none;fillColor=none;fontColor=#000000;" parent="WIyWlLk6GJQsqaUBKTNV-1" vertex="1">
          <mxGeometry x="391" y="119" width="38" height="26" as="geometry" />
        </mxCell>
        <mxCell id="tZZJJGr4Nyh_WJNYv-40-4" value="" style="ellipse;html=1;shape=endState;fillColor=#000000;strokeColor=#ff0000;" parent="WIyWlLk6GJQsqaUBKTNV-1" vertex="1">
          <mxGeometry x="398" y="906" width="30" height="30" as="geometry" />
        </mxCell>
        <mxCell id="Hv_kiw9oEFp-t0dqKTi3-3" style="edgeStyle=none;curved=1;rounded=0;orthogonalLoop=1;jettySize=auto;html=1;fontSize=12;startSize=8;endSize=8;" edge="1" parent="WIyWlLk6GJQsqaUBKTNV-1" source="8BPu_o3kOxfXDKiwP98S-24">
          <mxGeometry relative="1" as="geometry">
            <mxPoint x="159" y="737" as="targetPoint" />
          </mxGeometry>
        </mxCell>
        <mxCell id="8BPu_o3kOxfXDKiwP98S-24" value="Give Feedback" style="rounded=1;whiteSpace=wrap;html=1;fontSize=12;glass=0;strokeWidth=1;shadow=0;fillColor=#1ba1e2;fontColor=#ffffff;strokeColor=#000000;" parent="WIyWlLk6GJQsqaUBKTNV-1" vertex="1">
          <mxGeometry x="104" y="517" width="116" height="38" as="geometry" />
        </mxCell>
      </root>
    </mxGraphModel>
  </diagram>
</mxfile>
